<svg xmlns="http://www.w3.org/2000/svg" viewBox="0 0 1200 750" font-family="system-ui, -apple-system, sans-serif">
  <defs>
    <linearGradient id="corp" x1="0" y1="0" x2="1" y2="1"><stop offset="0%" stop-color="#1a237e"/><stop offset="100%" stop-color="#283593"/></linearGradient>
    <linearGradient id="local" x1="0" y1="0" x2="1" y2="1"><stop offset="0%" stop-color="#1b5e20"/><stop offset="100%" stop-color="#2e7d32"/></linearGradient>
    <linearGradient id="proc" x1="0" y1="0" x2="1" y2="1"><stop offset="0%" stop-color="#bf360c"/><stop offset="100%" stop-color="#e65100"/></linearGradient>
    <linearGradient id="out" x1="0" y1="0" x2="1" y2="1"><stop offset="0%" stop-color="#4a148c"/><stop offset="100%" stop-color="#6a1b9a"/></linearGradient>
    <filter id="shadow"><feDropShadow dx="1" dy="2" stdDeviation="3" flood-opacity="0.15"/></filter>
  </defs>

  <!-- Background -->
  <rect width="1200" height="750" fill="#f5f5f5" rx="12"/>
  
  <!-- Title -->
  <text x="600" y="42" text-anchor="middle" font-size="26" font-weight="800" fill="#1a237e">Auto-RAG — Corporate-First Knowledge Gateway</text>
  <text x="600" y="65" text-anchor="middle" font-size="13" fill="#616161">MCP transport · Structured Evidence · 8 live connectors · 437 tests · ADR-006 Stabilization</text>

  <!-- ====== Query ====== -->
  <rect x="440" y="85" width="320" height="36" rx="18" fill="#37474f" filter="url(#shadow)"/>
  <text x="600" y="108" text-anchor="middle" font-size="14" fill="white" font-weight="600">Query → DCD Router (domain classification)</text>

  <!-- Arrow down -->
  <line x1="600" y1="121" x2="600" y2="145" stroke="#78909c" stroke-width="2" marker-end="url(#arrow)"/>
  <defs><marker id="arrow" viewBox="0 0 10 10" refX="5" refY="5" markerWidth="6" markerHeight="6" orient="auto"><path d="M0,0 L10,5 L0,10 Z" fill="#78909c"/></marker></defs>

  <!-- ====== Corporate Sources ====== -->
  <rect x="35" y="150" width="540" height="170" rx="10" fill="white" stroke="url(#corp)" stroke-width="2" filter="url(#shadow)"/>
  <rect x="35" y="150" width="540" height="28" rx="10" fill="url(#corp)"/>
  <rect x="35" y="168" width="540" height="10" fill="url(#corp)"/>
  <text x="305" y="170" text-anchor="middle" font-size="13" fill="white" font-weight="700">CORPORATE SOURCES — Live Authoritative</text>

  <!-- Jira -->
  <rect x="55" y="192" width="115" height="55" rx="8" fill="#e8eaf6" stroke="#5c6bc0" stroke-width="1.5"/>
  <text x="112" y="215" text-anchor="middle" font-size="12" fill="#1a237e" font-weight="700">Jira</text>
  <text x="112" y="233" text-anchor="middle" font-size="9" fill="#5c6bc0">comments ≤500</text>
  <text x="112" y="244" text-anchor="middle" font-size="9" fill="#5c6bc0">linked ≤5</text>

  <!-- Arrow between -->
  <text x="175" y="223" text-anchor="middle" font-size="18" fill="#9e9e9e">→</text>

  <!-- Confluence -->
  <rect x="190" y="192" width="115" height="55" rx="8" fill="#e8eaf6" stroke="#5c6bc0" stroke-width="1.5"/>
  <text x="247" y="215" text-anchor="middle" font-size="12" fill="#1a237e" font-weight="700">Confluence</text>
  <text x="247" y="233" text-anchor="middle" font-size="9" fill="#5c6bc0">PDF extraction</text>
  <text x="247" y="244" text-anchor="middle" font-size="9" fill="#5c6bc0">pymupdf</text>

  <!-- Arrow -->
  <text x="310" y="223" text-anchor="middle" font-size="18" fill="#9e9e9e">→</text>

  <!-- Lodestone -->
  <rect x="325" y="192" width="115" height="55" rx="8" fill="#e8eaf6" stroke="#5c6bc0" stroke-width="1.5"/>
  <text x="382" y="215" text-anchor="middle" font-size="12" fill="#1a237e" font-weight="700">Lodestone</text>
  <text x="382" y="233" text-anchor="middle" font-size="9" fill="#5c6bc0">corp KB</text>
  <text x="382" y="244" text-anchor="middle" font-size="9" fill="#5c6bc0">MCP HTTP</text>

  <!-- Arrow -->
  <text x="445" y="223" text-anchor="middle" font-size="18" fill="#9e9e9e">→</text>

  <!-- Allowlisted Web -->
  <rect x="460" y="192" width="100" height="55" rx="8" fill="#e8eaf6" stroke="#5c6bc0" stroke-width="1.5"/>
  <text x="510" y="215" text-anchor="middle" font-size="11" fill="#1a237e" font-weight="700">Public Web</text>
  <text x="510" y="233" text-anchor="middle" font-size="9" fill="#5c6bc0">aldpro·astra</text>
  <text x="510" y="244" text-anchor="middle" font-size="9" fill="#5c6bc0">SIRIUS-* skip</text>

  <!-- Priority bar -->
  <rect x="55" y="260" width="505" height="3" rx="1" fill="#c5cae9"/>
  <text x="305" y="280" text-anchor="middle" font-size="9" fill="#7986cb">Priority: Jira → Confluence → Lodestone → Allowlisted Web</text>

  <!-- Web OFF badge -->
  <rect x="55" y="288" width="505" height="22" rx="5" fill="#ffebee"/>
  <text x="305" y="303" text-anchor="middle" font-size="10" fill="#c62828" font-weight="600">🔴 Generic Web — DISABLED (corporate-first policy)</text>

  <!-- ====== Local Sources ====== -->
  <rect x="625" y="150" width="540" height="170" rx="10" fill="white" stroke="url(#local)" stroke-width="2" filter="url(#shadow)"/>
  <rect x="625" y="150" width="540" height="28" rx="10" fill="url(#local)"/>
  <rect x="625" y="168" width="540" height="10" fill="url(#local)"/>
  <text x="895" y="170" text-anchor="middle" font-size="13" fill="white" font-weight="700">LOCAL SOURCES — Offline-Capable</text>

  <!-- Hub -->
  <rect x="645" y="192" width="130" height="55" rx="8" fill="#e8f5e9" stroke="#66bb6a" stroke-width="1.5"/>
  <text x="710" y="215" text-anchor="middle" font-size="12" fill="#1b5e20" font-weight="700">Hub</text>
  <text x="710" y="233" text-anchor="middle" font-size="9" fill="#388e3c">Automation Hub</text>
  <text x="710" y="244" text-anchor="middle" font-size="9" fill="#388e3c">51 collections</text>

  <!-- ZVec -->
  <rect x="790" y="192" width="130" height="55" rx="8" fill="#e8f5e9" stroke="#66bb6a" stroke-width="1.5"/>
  <text x="855" y="215" text-anchor="middle" font-size="12" fill="#1b5e20" font-weight="700">ZVec</text>
  <text x="855" y="233" text-anchor="middle" font-size="9" fill="#388e3c">HNSW · bge-m3</text>
  <text x="855" y="244" text-anchor="middle" font-size="9" fill="#388e3c">AVX2</text>

  <!-- Local Snapshot -->
  <rect x="935" y="192" width="115" height="55" rx="8" fill="#e8f5e9" stroke="#66bb6a" stroke-width="1.5"/>
  <text x="992" y="215" text-anchor="middle" font-size="12" fill="#1b5e20" font-weight="700">Snapshot</text>
  <text x="992" y="233" text-anchor="middle" font-size="9" fill="#388e3c">local index</text>
  <text x="992" y="244" text-anchor="middle" font-size="9" fill="#388e3c">offline</text>

  <!-- SearXNG -->
  <rect x="645" y="260" width="130" height="50" rx="8" fill="#e8f5e9" stroke="#66bb6a" stroke-width="1.5"/>
  <text x="710" y="283" text-anchor="middle" font-size="12" fill="#1b5e20" font-weight="700">SearXNG</text>
  <text x="710" y="299" text-anchor="middle" font-size="9" fill="#388e3c">localhost:8888</text>

  <!-- Memvid -->
  <rect x="790" y="260" width="130" height="50" rx="8" fill="#e8f5e9" stroke="#66bb6a" stroke-width="1.5"/>
  <text x="855" y="283" text-anchor="middle" font-size="12" fill="#1b5e20" font-weight="700">memvid</text>
  <text x="855" y="299" text-anchor="middle" font-size="9" fill="#388e3c">episodic cache</text>

  <!-- ====== Processing ====== -->
  <rect x="250" y="360" width="700" height="65" rx="10" fill="white" stroke="url(#proc)" stroke-width="2" filter="url(#shadow)"/>
  <rect x="250" y="360" width="700" height="28" rx="10" fill="url(#proc)"/>
  <rect x="250" y="378" width="700" height="10" fill="url(#proc)"/>
  <text x="600" y="380" text-anchor="middle" font-size="13" fill="white" font-weight="700">PROCESSING</text>

  <!-- Processing steps -->
  <rect x="270" y="396" width="155" height="22" rx="5" fill="#fbe9e7"/>
  <text x="347" y="411" text-anchor="middle" font-size="10" fill="#bf360c" font-weight="600">BGE-M3 Reranker</text>

  <text x="435" y="411" text-anchor="middle" font-size="14" fill="#9e9e9e">→</text>

  <rect x="450" y="396" width="155" height="22" rx="5" fill="#fbe9e7"/>
  <text x="527" y="411" text-anchor="middle" font-size="10" fill="#bf360c" font-weight="600">Canonical Dedup</text>

  <text x="615" y="411" text-anchor="middle" font-size="14" fill="#9e9e9e">→</text>

  <rect x="630" y="396" width="155" height="22" rx="5" fill="#fbe9e7"/>
  <text x="707" y="411" text-anchor="middle" font-size="10" fill="#bf360c" font-weight="600">Exact ID/Slug Boost</text>

  <text x="795" y="411" text-anchor="middle" font-size="14" fill="#9e9e9e">→</text>

  <rect x="810" y="396" width="120" height="22" rx="5" fill="#fbe9e7"/>
  <text x="870" y="411" text-anchor="middle" font-size="10" fill="#bf360c" font-weight="600">Stage Timing</text>

  <!-- ====== Output ====== -->
  <rect x="330" y="460" width="540" height="55" rx="10" fill="white" stroke="url(#out)" stroke-width="2" filter="url(#shadow)"/>
  <rect x="330" y="460" width="540" height="28" rx="10" fill="url(#out)"/>
  <rect x="330" y="478" width="540" height="10" fill="url(#out)"/>
  <text x="600" y="480" text-anchor="middle" font-size="13" fill="white" font-weight="700">OUTPUT</text>
  <rect x="350" y="494" width="250" height="15" rx="4" fill="#f3e5f5"/>
  <text x="475" y="505" text-anchor="middle" font-size="10" fill="#4a148c" font-weight="600">Evidence[] → Hermes Agent / Local LLM</text>

  <!-- Arrow from Processing to Output -->
  <line x1="600" y1="425" x2="600" y2="458" stroke="#78909c" stroke-width="2"/>
  <polygon points="595,458 600,468 605,458" fill="#78909c"/>

  <!-- ====== Stats Footer ====== -->
  <rect x="35" y="550" width="1130" height="55" rx="10" fill="white" stroke="#e0e0e0" stroke-width="1" filter="url(#shadow)"/>

  <rect x="55" y="563" width="160" height="32" rx="6" fill="#e8eaf6"/>
  <text x="135" y="584" text-anchor="middle" font-size="11" fill="#1a237e" font-weight="700">8 Connectors</text>

  <rect x="230" y="563" width="160" height="32" rx="6" fill="#e8f5e9"/>
  <text x="310" y="584" text-anchor="middle" font-size="11" fill="#1b5e20" font-weight="700">437 Tests</text>

  <rect x="405" y="563" width="160" height="32" rx="6" fill="#fbe9e7"/>
  <text x="485" y="584" text-anchor="middle" font-size="11" fill="#bf360c" font-weight="700">Web OFF</text>

  <rect x="580" y="563" width="160" height="32" rx="6" fill="#f3e5f5"/>
  <text x="660" y="584" text-anchor="middle" font-size="11" fill="#4a148c" font-weight="700">Corporate-First</text>

  <rect x="755" y="563" width="160" height="32" rx="6" fill="#eee"/>
  <text x="835" y="584" text-anchor="middle" font-size="11" fill="#424242" font-weight="700">ADR-006 Stabilization</text>

  <rect x="930" y="563" width="220" height="32" rx="6" fill="#eee"/>
  <text x="1040" y="584" text-anchor="middle" font-size="11" fill="#424242" font-weight="700">Retrieval Core Frozen</text>

  <!-- ====== Bottom ====== -->
  <text x="600" y="635" text-anchor="middle" font-size="10" fill="#9e9e9e">NikolayGusev-astra/auto-rag · github.com · ADR-006 · 2026-07-21</text>
</svg>
